<svg xmlns="http://www.w3.org/2000/svg" width="35.089" height="21" viewBox="0 0 35.089 21">
  <g id="maestro" transform="translate(-6.47 -14.037)">
    <g id="Group_2990" data-name="Group 2990" transform="translate(6.471 14.037)">
      <path id="Path_867" data-name="Path 867" d="M77.674,148.726a10.5,10.5,0,1,0-7.034,2.714,10.452,10.452,0,0,0,7.034-2.714Z" transform="translate(-60.13 -130.442)" fill="#009ddd"/>
      <path id="Path_868" data-name="Path 868" d="M230.767,172.417a10.5,10.5,0,0,0,0-15.569v15.569Z" transform="translate(-213.223 -154.133)" fill="#009ddd"/>
    </g>
    <path id="Path_869" data-name="Path 869" d="M209.831,130.446a10.5,10.5,0,0,0-7.055,2.715,13.472,13.472,0,0,0-1.049,1.111h2.118a13.477,13.477,0,0,1,.8,1.11h-3.723q-.338.556-.617,1.111h4.937c.165.37.329.741.452,1.111h-5.819a10.05,10.05,0,0,0-.309,1.131H206a11.177,11.177,0,0,1,.227,2.221,10.567,10.567,0,0,1-.536,3.332h-5.819q.184.555.43,1.111h4.937a11.416,11.416,0,0,1-.6,1.111h-3.723a11.149,11.149,0,0,0,.8,1.111h2.118a10.808,10.808,0,0,1-1.069,1.111,10.5,10.5,0,1,0,7.055-18.285Z" transform="translate(-178.762 -116.409)" fill="#ed1c2e"/>
    <g id="Group_2991" data-name="Group 2991" transform="translate(9.967 21.832)">
      <path id="Path_870" data-name="Path 870" d="M366.194,251.8a.343.343,0,0,1,.35-.329.324.324,0,0,1,.329.329.342.342,0,0,1-.329.35.361.361,0,0,1-.35-.35Zm.35.268a.255.255,0,0,0,.247-.268.238.238,0,0,0-.247-.247.254.254,0,0,0-.267.247.272.272,0,0,0,.267.268Zm-.041-.124h-.082v-.288h.123c.04,0,.062,0,.083.021s.04.04.04.062c0,.042-.02.083-.062.083l.062.123h-.083l-.04-.1H366.5v.1Zm0-.164h.082v-.063H366.5v.063Z" transform="translate(-338.223 -246.823)" fill="#fff"/>
      <path id="Path_871" data-name="Path 871" d="M99.837,211.593H98.521L99.3,207.5l-1.789,4.093H96.32l-.205-4.073-.781,4.073H94.14l1.008-5.327H97.2l.1,3.29,1.442-3.29h2.116Z" transform="translate(-94.14 -206.266)" fill="#fff"/>
      <path id="Path_872" data-name="Path 872" d="M274.347,211.535a3.34,3.34,0,0,1-.947.143c-.657,0-1.029-.329-1.029-.945a2.908,2.908,0,0,1,.041-.392l.082-.432.063-.328.6-3.311h1.3l-.184.986h.678l-.185,1.05h-.679l-.329,1.809a1,1,0,0,0-.041.185c0,.227.144.328.453.328a1.5,1.5,0,0,0,.349-.041l-.165.947Z" transform="translate(-254.047 -206.27)" fill="#fff"/>
      <path id="Path_873" data-name="Path 873" d="M298.972,215.55a.35.35,0,0,0-.144-.042c-.062-.021-.1-.021-.1-.041h-.143a1.352,1.352,0,0,0-1.132.7l.123-.658H296.38l-.8,4.34h1.316c.473-2.654.658-3.127,1.3-3.127.041,0,.1.021.165.021l.144.041.474-1.233Z" transform="translate(-274.868 -214.521)" fill="#fff"/>
      <path id="Path_874" data-name="Path 874" d="M236.859,216.533c0,.535.309.926,1.008,1.194.535.225.618.288.618.494,0,.267-.247.391-.761.391a4.239,4.239,0,0,1-1.193-.185l-.165,1.008h.062l.225.061c.082,0,.205.021.349.021a5.381,5.381,0,0,0,.741.04c1.378,0,2.036-.452,2.036-1.439,0-.6-.267-.946-.946-1.213-.556-.206-.617-.267-.617-.473,0-.225.226-.349.658-.349a8.616,8.616,0,0,1,.945.061l.185-.987a7.9,7.9,0,0,0-1.152-.082c-1.48,0-1.995.657-1.995,1.459Z" transform="translate(-221.743 -214.168)" fill="#fff"/>
      <path id="Path_875" data-name="Path 875" d="M159.176,219.489h-1.07l.021-.453a1.783,1.783,0,0,1-1.378.514,1.128,1.128,0,0,1-1.193-1.172c0-1.05.842-1.666,2.3-1.666a5.066,5.066,0,0,1,.534.021.824.824,0,0,0,.041-.267c0-.288-.227-.391-.844-.391a5.524,5.524,0,0,0-1.069.1l-.185.062-.124.02.185-.966a5.921,5.921,0,0,1,1.564-.226c1.13,0,1.707.431,1.707,1.254a4.6,4.6,0,0,1-.1.864l-.267,1.543-.041.267-.042.227-.02.143-.021.124Zm-.946-1.934a1.7,1.7,0,0,0-.288-.02c-.741,0-1.111.226-1.111.659a.421.421,0,0,0,.452.452,1.009,1.009,0,0,0,.947-1.091Z" transform="translate(-149.243 -214.162)" fill="#fff"/>
      <path id="Path_876" data-name="Path 876" d="M201.517,219.2a4.976,4.976,0,0,1-1.337.185c-1.458,0-2.221-.679-2.221-1.954a2.368,2.368,0,0,1,2.284-2.571,1.557,1.557,0,0,1,1.749,1.563,4.418,4.418,0,0,1-.144,1.07h-2.613v.144c0,.494.37.761,1.131.761a3.474,3.474,0,0,0,1.357-.267l-.206,1.069Zm-.7-2.57V216.4c0-.349-.227-.556-.617-.556-.412,0-.7.288-.824.783Z" transform="translate(-187.285 -213.974)" fill="#fff"/>
      <path id="Path_877" data-name="Path 877" d="M328,217.141a2.314,2.314,0,0,1-2.551,2.077,1.843,1.843,0,0,1-2.055-1.994,2.429,2.429,0,0,1,2.57-2.572,1.892,1.892,0,0,1,2.077,1.954,2.216,2.216,0,0,1-.041.536Zm-1.357-.556c0-.452-.185-.863-.719-.863-.66,0-1.071.781-1.071,1.48,0,.576.289.967.741.967a1.275,1.275,0,0,0,1.008-1.049,2.273,2.273,0,0,0,.041-.536Z" transform="translate(-299.825 -213.789)" fill="#fff"/>
    </g>
  </g>
</svg>
