<svg xmlns="http://www.w3.org/2000/svg" width="49.477" height="15" viewBox="0 0 49.477 15">
  <g id="visa" transform="translate(0 -175.6)">
    <path id="Path_878" data-name="Path 878" d="M184.8,194.536l2.513-14.136h3.927l-2.435,14.136Z" transform="translate(-166.659 -4.329)" fill="#3c58bf"/>
    <path id="Path_879" data-name="Path 879" d="M184.8,194.536l3.22-14.136h3.22l-2.435,14.136Z" transform="translate(-166.659 -4.329)" fill="#293688"/>
    <path id="Path_880" data-name="Path 880" d="M260.016,176.228a9.961,9.961,0,0,0-3.613-.628c-3.927,0-6.754,1.963-6.754,4.791,0,2.12,1.963,3.22,3.534,3.927s2.042,1.178,2.042,1.806c0,.942-1.257,1.414-2.356,1.414a8.537,8.537,0,0,1-3.77-.785l-.55-.236-.55,3.22a12.734,12.734,0,0,0,4.476.785c4.162,0,6.911-1.963,6.911-4.948,0-1.649-1.021-2.906-3.377-3.927-1.414-.707-2.277-1.1-2.277-1.806,0-.628.707-1.257,2.277-1.257a7.2,7.2,0,0,1,2.984.55l.393.157.628-3.063Z" transform="translate(-223.654 0)" fill="#3c58bf"/>
    <path id="Path_881" data-name="Path 881" d="M260.016,176.228a9.961,9.961,0,0,0-3.613-.628c-3.927,0-6.047,1.963-6.047,4.791a4.105,4.105,0,0,0,2.827,3.927c1.571.707,2.042,1.178,2.042,1.806,0,.942-1.257,1.414-2.356,1.414a8.537,8.537,0,0,1-3.77-.785l-.55-.236-.55,3.22a12.734,12.734,0,0,0,4.476.785c4.162,0,6.911-1.963,6.911-4.948,0-1.649-1.021-2.906-3.377-3.927-1.414-.707-2.277-1.1-2.277-1.806,0-.628.707-1.257,2.277-1.257a7.2,7.2,0,0,1,2.984.55l.393.157.628-3.063Z" transform="translate(-223.654 0)" fill="#293688"/>
    <path id="Path_882" data-name="Path 882" d="M366.332,180.4c-.942,0-1.649.079-2.042,1.021l-5.89,13.115h4.241l.785-2.356h5.026l.471,2.356h3.77l-3.3-14.136Zm-1.806,9.424c.236-.707,1.571-4.162,1.571-4.162s.314-.864.55-1.414l.236,1.335s.785,3.534.942,4.319h-3.3Z" transform="translate(-323.217 -4.329)" fill="#3c58bf"/>
    <path id="Path_883" data-name="Path 883" d="M367.274,180.4c-.942,0-1.649.079-2.042,1.021L358.4,194.536h4.241l.785-2.356h5.026l.471,2.356h3.77l-3.3-14.136Zm-2.749,9.424c.314-.785,1.571-4.162,1.571-4.162s.314-.864.55-1.414l.236,1.335s.785,3.534.942,4.319h-3.3Z" transform="translate(-323.217 -4.329)" fill="#293688"/>
    <path id="Path_884" data-name="Path 884" d="M57.09,191.017l-.393-2.042a11.384,11.384,0,0,0-5.5-6.2l3.534,12.565h4.241L65.336,181.2H61.1Z" transform="translate(-46.174 -5.05)" fill="#3c58bf"/>
    <path id="Path_885" data-name="Path 885" d="M57.09,191.017l-.393-2.042a11.384,11.384,0,0,0-5.5-6.2l3.534,12.565h4.241L65.336,181.2H61.881Z" transform="translate(-46.174 -5.05)" fill="#293688"/>
    <path id="Path_886" data-name="Path 886" d="M0,180.4l.707.157c5.026,1.178,8.482,4.162,9.817,7.7L9.11,181.578c-.236-.942-.942-1.178-1.806-1.178Z" transform="translate(0 -4.329)" fill="#ffbc00"/>
    <path id="Path_887" data-name="Path 887" d="M0,180.4H0c5.026,1.178,9.188,4.241,10.524,7.775L9.188,182.6A1.917,1.917,0,0,0,7.3,181.107Z" transform="translate(0 -4.329)" fill="#f7981d"/>
    <path id="Path_888" data-name="Path 888" d="M0,180.4H0c5.026,1.178,9.188,4.241,10.524,7.775l-.942-3.063a2.77,2.77,0,0,0-1.649-2.277Z" transform="translate(0 -4.329)" fill="#ed7c00"/>
    <g id="Group_2995" data-name="Group 2995" transform="translate(5.105 177.642)">
      <path id="Path_889" data-name="Path 889" d="M61.738,204.253l-2.67-2.67-1.257,2.984L57.5,202.6a11.384,11.384,0,0,0-5.5-6.2l3.534,12.565h4.241Z" transform="translate(-52 -196.4)" fill="#051244"/>
      <path id="Path_890" data-name="Path 890" d="M188.805,292.655l-3.377-3.455-.628,3.455Z" transform="translate(-171.763 -280.09)" fill="#051244"/>
      <path id="Path_891" data-name="Path 891" d="M254.832,274.8h0c.314.314.471.55.393.864,0,.942-1.257,1.414-2.356,1.414a8.535,8.535,0,0,1-3.77-.785l-.55-.236-.55,3.22a12.734,12.734,0,0,0,4.476.785,7.776,7.776,0,0,0,5.733-1.963Z" transform="translate(-228.759 -267.104)" fill="#051244"/>
      <path id="Path_892" data-name="Path 892" d="M364,229.888h3.691l.785-2.356H373.5l.471,2.356h3.77l-1.335-5.733L371.7,219.6l.236,1.257s.785,3.534.942,4.319h-3.3c.314-.785,1.571-4.162,1.571-4.162s.314-.864.55-1.414" transform="translate(-333.372 -217.323)" fill="#051244"/>
    </g>
  </g>
</svg>
